# 3ds Max Wavefront OBJ Exporter v0.97b - (c)2007 guruware
# File Created: 04.04.2019 14:33:53

mtllib Boshy.mtl

#
# object Box001
#

v  -0.0762 0.0000 -0.2666
v  0.8275 0.0000 0.9417
v  -0.0762 0.0000 0.9417
v  0.8275 2.2293 -0.2324
v  -0.0762 2.2293 -0.2355
v  -0.0762 2.2293 -0.2324
v  -0.0762 1.1147 0.4634
v  0.8275 2.1338 -0.0718
v  -0.0762 2.1338 -0.0718
v  0.8275 1.0755 -0.2665
v  0.8275 1.0962 0.4283
v  0.8275 1.0755 0.3942
v  0.8275 1.1147 -0.9639
v  -0.0762 2.1364 -0.4006
v  0.8275 2.1364 -0.4006
v  -0.0762 1.0962 0.4283
v  -0.0762 1.0865 -0.2665
v  -0.0762 1.0755 0.3942
v  0.8275 0.0037 -1.5118
v  -0.0762 0.0000 -1.4749
v  -0.0762 0.0037 -1.5118
v  -0.0762 0.0038 0.9788
v  0.8275 0.0038 0.9788
v  0.8275 2.2255 -0.1911
v  -0.0762 2.2255 -0.1911
v  -0.0762 2.2256 -0.2769
v  0.8275 2.2293 -0.2355
v  0.8275 2.2256 -0.2769
v  0.8275 0.0149 -1.5354
v  -0.0762 0.0149 -1.5354
v  0.8275 0.0335 -1.5459
v  -0.0762 0.0335 -1.5459
v  0.8275 0.0595 -1.5431
v  -0.0762 0.0595 -1.5431
v  0.8275 0.0930 -1.5272
v  -0.0762 0.0930 -1.5272
v  0.8275 0.0153 1.0030
v  -0.0762 0.0153 1.0030
v  0.8275 0.0344 1.0144
v  -0.0762 0.0344 1.0144
v  -0.0762 0.0612 1.0129
v  0.8275 0.0612 1.0129
v  0.8275 0.0956 0.9986
v  -0.0762 0.0956 0.9986
v  0.8275 2.2140 -0.1545
v  -0.0762 2.2140 -0.1545
v  -0.0762 2.1949 -0.1224
v  0.8275 2.1949 -0.1224
v  0.8275 2.1682 -0.0948
v  -0.0762 2.1682 -0.0948
v  0.8275 2.2145 -0.3141
v  -0.0762 2.2145 -0.3141
v  -0.0762 2.1959 -0.3471
v  0.8275 2.1959 -0.3471
v  0.8275 2.1698 -0.3760
v  -0.0762 2.1698 -0.3760
v  0.8275 0.0000 -0.2666
v  0.8275 0.0000 -1.4749
v  0.8275 1.1147 0.4634
v  0.8275 0.0406 -1.5115
v  0.8275 0.0503 -1.5105
v  0.8275 0.0435 0.9773
v  0.8275 0.0395 0.9688
v  0.8275 0.0365 0.9398
v  0.8275 0.0777 -1.4974
v  0.8275 0.0787 0.9627
v  0.8275 0.0367 -1.4730
v  0.8275 2.0677 -0.2198
v  0.8275 2.0695 -0.2398
v  0.8275 2.0662 -0.2511
v  0.8275 2.0488 -0.2639
v  0.8275 1.0985 -0.9346
v  0.8275 0.0365 -0.2666
v  0.8275 1.6103 -0.2669
v  0.8275 0.9377 -0.6549
v  -0.0762 1.1147 -0.9639
v  -0.0762 0.0406 -1.5115
v  -0.0762 0.0435 0.9773
v  -0.0762 0.0503 -1.5105
v  -0.0762 0.0395 0.9688
v  -0.0762 0.0787 0.9627
v  -0.0762 0.0367 -1.4730
v  -0.0762 2.0677 -0.2198
v  -0.0762 2.0695 -0.2398
v  -0.0762 2.0662 -0.2511
v  -0.0762 2.0488 -0.2639
v  -0.0762 0.0777 -1.4974
v  -0.0762 1.0985 -0.9346
v  -0.0762 0.0367 -0.2666
v  -0.0762 0.0365 0.9398
v  -0.0762 1.6114 -0.2669
v  -0.0762 0.9395 -0.6549
# 92 vertices

vn 0.0000 -1.0000 -0.0000
vn 0.0000 -0.9987 0.0514
vn 0.0000 0.9989 0.0462
vn 0.0000 0.9990 -0.0448
vn 0.0000 0.4649 0.8853
vn 0.0000 0.5112 0.8595
vn 1.0000 0.0000 -0.0000
vn 0.0000 0.4828 -0.8757
vn 0.0000 0.5392 -0.8422
vn -1.0000 0.0000 -0.0000
vn 0.0000 -0.9637 -0.2671
vn 0.0000 -0.9987 -0.0502
vn 0.0000 -0.9631 0.2691
vn 0.0000 0.9805 0.1965
vn 0.0000 0.9819 -0.1892
vn 0.0000 -0.9046 -0.4262
vn 0.0000 -0.4905 -0.8714
vn 0.0000 0.2716 -0.9624
vn 0.0000 0.1050 -0.9945
vn 0.0000 0.4568 -0.8896
vn 0.0000 -0.9038 0.4279
vn 0.0000 -0.5115 0.8593
vn 0.0000 0.2227 0.9749
vn 0.0000 0.0548 0.9985
vn 0.0000 0.4250 0.9052
vn 0.0000 0.9131 0.4078
vn 0.0000 0.7938 0.6082
vn 0.0000 0.6403 0.7681
vn 0.0000 0.9203 -0.3912
vn 0.0000 0.8119 -0.5838
vn 0.0000 0.6712 -0.7413
# 31 vertex normals

vt 1.0000 0.5000 0.0000
vt 0.0000 0.0391 0.0000
vt 1.0000 0.0391 0.0000
vt 1.0000 0.4929 0.0000
vt 0.0000 0.5071 0.0000
vt 0.0000 0.4929 0.0000
vt 0.0000 0.5000 0.0000
vt 1.0000 0.9571 0.0000
vt 0.0000 0.9571 0.0000
vt 0.5140 0.4824 0.0000
vt 0.2437 0.4917 0.0000
vt 0.2569 0.4824 0.0000
vt 1.0000 0.9583 0.0000
vt 0.0000 0.9583 0.0000
vt 0.7716 0.4917 0.0000
vt 0.5015 0.4874 0.0000
vt 0.7585 0.4824 0.0000
vt 0.0000 -0.0520 0.0000
vt 1.0000 -0.0754 0.0000
vt 1.0000 -0.0520 0.0000
vt 0.0000 -0.0546 0.0000
vt 1.0000 -0.0789 0.0000
vt 1.0000 -0.0546 0.0000
vt 1.0000 1.7528 0.0000
vt 0.0000 1.9517 0.0000
vt 0.0000 1.7528 0.0000
vt 1.0000 1.7880 0.0000
vt 0.0000 1.9954 0.0000
vt 0.0000 1.7880 0.0000
vt 0.0000 -0.0286 0.0000
vt 1.0000 -0.0286 0.0000
vt 0.0000 -0.0052 0.0000
vt 1.0000 -0.0052 0.0000
vt 0.0000 0.0183 0.0000
vt 1.0000 0.0183 0.0000
vt 0.0000 0.0417 0.0000
vt 1.0000 0.0417 0.0000
vt 1.0000 -0.0302 0.0000
vt 0.0000 -0.0302 0.0000
vt 1.0000 -0.0058 0.0000
vt 0.0000 -0.0058 0.0000
vt 0.0000 0.0185 0.0000
vt 1.0000 0.0185 0.0000
vt 1.0000 0.0429 0.0000
vt 0.0000 0.0429 0.0000
vt 1.0000 1.5538 0.0000
vt 0.0000 1.5538 0.0000
vt 0.0000 1.3549 0.0000
vt 1.0000 1.3549 0.0000
vt 1.0000 1.1560 0.0000
vt 0.0000 1.1560 0.0000
vt 0.0000 1.5805 0.0000
vt 1.0000 1.5805 0.0000
vt 1.0000 1.3731 0.0000
vt 0.0000 1.3731 0.0000
vt 0.0000 1.1657 0.0000
vt 1.0000 1.1657 0.0000
vt 1.0000 0.9609 0.0000
vt 0.0000 0.9609 0.0000
vt 0.9937 0.0182 0.0000
vt 1.0029 0.0067 0.0000
vt 1.0070 0.0150 0.0000
vt 1.0061 0.0267 0.0000
vt 0.9933 0.0226 0.0000
vt 0.0254 0.0195 0.0000
vt 0.0110 0.0154 0.0000
vt 0.0153 0.0069 0.0000
vt 0.0247 0.0017 0.0000
vt 0.0287 0.0177 0.0000
vt 0.0391 0.0000 0.0000
vt 0.0400 0.0164 0.0000
vt 0.9884 0.0348 0.0000
vt 0.0313 0.0353 0.0000
vt 0.0116 0.0274 0.0000
vt 0.9787 0.0165 0.0000
vt 0.9936 0.0017 0.0000
vt 0.5003 0.9275 0.0000
vt 0.4755 0.9931 0.0000
vt 0.4629 0.9846 0.0000
vt 0.4521 0.9726 0.0000
vt 0.4430 0.9571 0.0000
vt 0.5059 1.0000 0.0000
vt 0.4898 0.9983 0.0000
vt 0.5080 0.9283 0.0000
vt 0.5071 1.0000 0.0000
vt 0.5124 0.9268 0.0000
vt 0.5232 0.9983 0.0000
vt 0.5504 0.9850 0.0000
vt 0.5376 0.9933 0.0000
vt 0.5173 0.9190 0.0000
vt 0.5615 0.9733 0.0000
vt 0.2302 0.5000 0.0000
vt 0.0174 0.0429 0.0000
vt 0.7855 0.5000 0.0000
vt 0.7740 0.4928 0.0000
vt 0.5709 0.9583 0.0000
vt 0.5091 -0.0000 0.0000
vt 0.5093 0.0164 0.0000
vt 0.9792 -0.0000 0.0000
vt 0.5165 0.7223 0.0000
vt 0.6645 0.4206 0.0000
vt 0.0245 0.0182 0.0000
vt 0.0154 0.0067 0.0000
vt 0.0121 0.0267 0.0000
vt 0.0112 0.0150 0.0000
vt 0.9921 0.0195 0.0000
vt 1.0065 0.0154 0.0000
vt 1.0058 0.0274 0.0000
vt 0.9929 0.0017 0.0000
vt 1.0023 0.0069 0.0000
vt 0.0249 0.0226 0.0000
vt 0.0181 0.0417 0.0000
vt 0.9888 0.0177 0.0000
vt 0.9785 -0.0000 0.0000
vt 0.9862 0.0353 0.0000
vt 0.0395 0.0165 0.0000
vt 0.5131 0.9275 0.0000
vt 0.5375 0.9931 0.0000
vt 0.5610 0.9726 0.0000
vt 0.5501 0.9846 0.0000
vt 0.5053 0.9283 0.0000
vt 0.5009 0.9268 0.0000
vt 0.4754 0.9933 0.0000
vt 0.4627 0.9850 0.0000
vt 0.4517 0.9733 0.0000
vt 0.4961 0.9190 0.0000
vt 0.4423 0.9583 0.0000
vt 0.7851 0.5000 0.0000
vt 0.5702 0.9571 0.0000
vt 0.0298 0.0348 0.0000
vt 0.2417 0.4928 0.0000
vt 0.5088 -0.0000 0.0000
vt 0.5086 0.0165 0.0000
vt 0.9776 0.0164 0.0000
vt 0.4979 0.7228 0.0000
vt 0.3515 0.4214 0.0000
vt 1.0000 0.5071 0.0000
vt 0.0000 -0.0754 0.0000
vt 0.0000 -0.0789 0.0000
vt 1.0000 1.9517 0.0000
vt 1.0000 1.9954 0.0000
# 141 texture coords

o Box001
g Box001
usemtl wire_166229229
s 1
f 1/1/1 2/2/2 3/3/2 
f 4/4/3 5/5/4 6/6/3 
f 7/7/5 8/8/6 9/9/6 
s 2
f 10/10/7 11/11/7 12/12/7 
s 1
f 13/7/8 14/13/9 15/14/9 
s 2
f 16/15/10 17/16/10 18/17/10 
s 1
f 19/18/11 20/19/12 21/20/11 
f 22/21/13 2/22/2 23/23/13 
f 24/24/14 6/25/3 25/26/14 
f 26/27/15 27/28/4 28/29/15 
f 29/30/16 21/20/11 30/31/16 
s 4
f 31/32/17 30/31/17 32/33/17 
s 1
f 33/34/18 32/33/19 34/35/18 
f 35/36/20 34/35/18 36/37/20 
f 22/21/13 37/38/21 38/39/21 
s 4
f 38/39/22 39/40/22 40/41/22 
s 1
f 41/42/23 39/40/24 42/43/23 
f 41/42/23 43/44/25 44/45/25 
f 45/46/26 25/26/14 46/47/26 
f 45/46/26 47/48/27 48/49/27 
f 49/50/28 47/48/27 50/51/28 
f 49/50/28 9/9/6 8/8/6 
f 26/27/15 51/52/29 52/53/29 
f 53/54/30 51/52/29 54/55/30 
f 53/54/30 55/56/31 56/57/31 
f 14/13/9 55/56/31 15/14/9 
f 57/7/1 20/58/12 58/59/12 
f 59/1/5 44/45/25 43/44/25 
s 2
f 60/60/7 29/61/7 31/62/7 
f 60/60/7 33/63/7 61/64/7 
f 62/65/7 39/66/7 37/67/7 
f 62/65/7 23/68/7 63/69/7 
f 63/69/7 2/70/7 64/71/7 
f 61/64/7 35/37/7 65/72/7 
f 66/73/7 42/74/7 62/65/7 
f 67/75/7 19/76/7 60/60/7 
f 68/77/7 45/78/7 48/79/7 
f 68/77/7 49/80/7 8/81/7 
f 68/77/7 4/82/7 24/83/7 
f 69/84/7 27/85/7 4/82/7 
f 70/86/7 28/87/7 69/84/7 
f 70/86/7 54/88/7 51/89/7 
f 71/90/7 55/91/7 70/86/7 
f 66/73/7 59/92/7 43/93/7 
f 11/11/7 8/81/7 59/92/7 
f 65/72/7 13/94/7 72/95/7 
f 72/95/7 15/96/7 71/90/7 
f 64/71/7 57/97/7 73/98/7 
f 73/98/7 58/99/7 67/75/7 
f 67/75/7 61/64/7 65/72/7 
f 66/73/7 63/69/7 64/71/7 
f 74/100/7 70/86/7 69/84/7 
f 74/100/7 68/77/7 11/11/7 
f 74/100/7 72/95/7 71/90/7 
f 75/101/7 65/72/7 72/95/7 
f 12/12/7 66/73/7 64/71/7 
f 12/12/7 73/98/7 10/10/7 
f 75/101/7 73/98/7 67/75/7 
f 74/100/7 10/10/7 75/101/7 
s 1
f 76/1/8 35/36/20 36/37/20 
s 2
f 77/102/10 30/103/10 21/68/10 
f 77/102/10 34/104/10 32/105/10 
f 78/106/10 40/107/10 41/108/10 
f 78/106/10 22/109/10 38/110/10 
f 79/111/10 36/112/10 34/104/10 
f 80/113/10 3/114/10 22/109/10 
f 81/115/10 41/108/10 44/44/10 
f 82/116/10 21/68/10 20/70/10 
f 83/117/10 46/118/10 25/87/10 
f 83/117/10 50/119/10 47/120/10 
f 83/117/10 6/85/10 84/121/10 
f 84/121/10 5/82/10 26/83/10 
f 85/122/10 26/83/10 52/123/10 
f 85/122/10 53/124/10 56/125/10 
f 86/126/10 56/125/10 14/127/10 
f 81/115/10 7/128/10 16/15/10 
f 16/15/10 9/129/10 83/117/10 
f 87/130/10 76/92/10 36/112/10 
f 88/131/10 14/127/10 76/92/10 
f 82/116/10 1/132/10 89/133/10 
f 90/134/10 1/132/10 3/114/10 
f 82/116/10 79/111/10 77/102/10 
f 81/115/10 80/113/10 78/106/10 
f 91/135/10 85/122/10 86/126/10 
f 91/135/10 83/117/10 84/121/10 
f 91/135/10 88/131/10 92/136/10 
f 92/136/10 87/130/10 82/116/10 
f 18/17/10 81/115/10 16/15/10 
f 92/136/10 89/133/10 17/16/10 
f 18/17/10 89/133/10 90/134/10 
f 17/16/10 91/135/10 92/136/10 
s 1
f 2/2/2 1/1/1 57/7/1 
f 5/5/4 4/4/3 27/137/4 
f 8/8/6 7/7/5 59/1/5 
f 14/13/9 13/7/8 76/1/8 
f 20/19/12 19/18/11 58/138/12 
f 2/22/2 22/21/13 3/139/2 
f 6/25/3 24/24/14 4/140/3 
f 27/28/4 26/27/15 5/141/4 
f 21/20/11 29/30/16 19/18/11 
s 4
f 30/31/17 31/32/17 29/30/17 
s 1
f 32/33/19 33/34/18 31/32/19 
f 34/35/18 35/36/20 33/34/18 
f 37/38/21 22/21/13 23/23/13 
s 4
f 39/40/22 38/39/22 37/38/22 
s 1
f 39/40/24 41/42/23 40/41/24 
f 43/44/25 41/42/23 42/43/23 
f 25/26/14 45/46/26 24/24/14 
f 47/48/27 45/46/26 46/47/26 
f 47/48/27 49/50/28 48/49/27 
f 9/9/6 49/50/28 50/51/28 
f 51/52/29 26/27/15 28/29/15 
f 51/52/29 53/54/30 52/53/29 
f 55/56/31 53/54/30 54/55/30 
f 55/56/31 14/13/9 56/57/31 
f 20/58/12 57/7/1 1/1/1 
f 44/45/25 59/1/5 7/7/5 
s 2
f 29/61/7 60/60/7 19/76/7 
f 33/63/7 60/60/7 31/62/7 
f 39/66/7 62/65/7 42/74/7 
f 23/68/7 62/65/7 37/67/7 
f 2/70/7 63/69/7 23/68/7 
f 35/37/7 61/64/7 33/63/7 
f 42/74/7 66/73/7 43/93/7 
f 19/76/7 67/75/7 58/99/7 
f 45/78/7 68/77/7 24/83/7 
f 49/80/7 68/77/7 48/79/7 
f 4/82/7 68/77/7 69/84/7 
f 27/85/7 69/84/7 28/87/7 
f 28/87/7 70/86/7 51/89/7 
f 54/88/7 70/86/7 55/91/7 
f 55/91/7 71/90/7 15/96/7 
f 59/92/7 66/73/7 11/11/7 
f 8/81/7 11/11/7 68/77/7 
f 13/94/7 65/72/7 35/37/7 
f 15/96/7 72/95/7 13/94/7 
f 57/97/7 64/71/7 2/70/7 
f 58/99/7 73/98/7 57/97/7 
f 61/64/7 67/75/7 60/60/7 
f 63/69/7 66/73/7 62/65/7 
f 70/86/7 74/100/7 71/90/7 
f 68/77/7 74/100/7 69/84/7 
f 72/95/7 74/100/7 75/101/7 
f 65/72/7 75/101/7 67/75/7 
f 66/73/7 12/12/7 11/11/7 
f 73/98/7 12/12/7 64/71/7 
f 73/98/7 75/101/7 10/10/7 
f 10/10/7 74/100/7 11/11/7 
s 1
f 35/36/20 76/1/8 13/7/8 
s 2
f 30/103/10 77/102/10 32/105/10 
f 34/104/10 77/102/10 79/111/10 
f 40/107/10 78/106/10 38/110/10 
f 22/109/10 78/106/10 80/113/10 
f 36/112/10 79/111/10 87/130/10 
f 3/114/10 80/113/10 90/134/10 
f 41/108/10 81/115/10 78/106/10 
f 21/68/10 82/116/10 77/102/10 
f 46/118/10 83/117/10 47/120/10 
f 50/119/10 83/117/10 9/129/10 
f 6/85/10 83/117/10 25/87/10 
f 5/82/10 84/121/10 6/85/10 
f 26/83/10 85/122/10 84/121/10 
f 53/124/10 85/122/10 52/123/10 
f 56/125/10 86/126/10 85/122/10 
f 7/128/10 81/115/10 44/44/10 
f 9/129/10 16/15/10 7/128/10 
f 76/92/10 87/130/10 88/131/10 
f 14/127/10 88/131/10 86/126/10 
f 1/132/10 82/116/10 20/70/10 
f 1/132/10 90/134/10 89/133/10 
f 79/111/10 82/116/10 87/130/10 
f 80/113/10 81/115/10 90/134/10 
f 85/122/10 91/135/10 84/121/10 
f 83/117/10 91/135/10 16/15/10 
f 88/131/10 91/135/10 86/126/10 
f 87/130/10 92/136/10 88/131/10 
f 81/115/10 18/17/10 90/134/10 
f 89/133/10 92/136/10 82/116/10 
f 89/133/10 18/17/10 17/16/10 
f 91/135/10 17/16/10 16/15/10 
# 180 faces

